<svg xmlns="http://www.w3.org/2000/svg" viewBox="0 0 620 400" width="100%" role="img" xmlns:c2pa="http://c2pa.org/manifest">
<defs>
  <filter id="soft" x="-60%" y="-60%" width="220%" height="220%">
    <feDropShadow dx="0" dy="6" stdDeviation="10" flood-color="#000" flood-opacity="0.55"></feDropShadow></filter>
  <filter id="blur" x="-80%" y="-80%" width="260%" height="260%"><feGaussianBlur stdDeviation="10"></feGaussianBlur></filter>
  <radialGradient id="gAm" cx="50%" cy="40%" r="70%">
    <stop offset="0%" stop-color="#ffd18a"></stop><stop offset="60%" stop-color="#e8a040"></stop><stop offset="100%" stop-color="#a8641c"></stop></radialGradient>
  <radialGradient id="gRd" cx="40%" cy="32%" r="78%">
    <stop offset="0%" stop-color="#ff9b9b"></stop><stop offset="55%" stop-color="#e05252"></stop><stop offset="100%" stop-color="#7d1f1f"></stop></radialGradient>
  <radialGradient id="gCell" cx="38%" cy="28%" r="82%">
    <stop offset="0%" stop-color="rgba(245,240,232,0.30)"></stop>
    <stop offset="55%" stop-color="rgba(120,200,180,0.16)"></stop>
    <stop offset="100%" stop-color="rgba(10,30,26,0.55)"></stop></radialGradient>
  <linearGradient id="gSur" x1="0" y1="0" x2="0" y2="1">
    <stop offset="0%" stop-color="#26221c"></stop><stop offset="100%" stop-color="#17140f"></stop></linearGradient>
  <linearGradient id="gBody" x1="0" y1="0" x2="1" y2="1">
    <stop offset="0%" stop-color="#4a4339"></stop><stop offset="60%" stop-color="#332e27"></stop><stop offset="100%" stop-color="#26221c"></stop></linearGradient></defs><rect width="620" height="400" fill="#0f0e0c"></rect><text x="32" y="48" font-family="Inter, 'Helvetica Neue', Arial, sans-serif" font-size="26" font-weight="600" fill="#f5f0e8">Phagocytosis</text>
<text x="32" y="80" font-family="Inter, 'Helvetica Neue', Arial, sans-serif" font-size="21" fill="rgba(245,240,232,0.6)">How a white blood cell engulfs a pathogen.</text><g filter="url(#soft)"><rect x="24" y="110" width="141" height="176" rx="16" fill="url(#gSur)" stroke="#e8a040" stroke-opacity="0.30"></rect></g><g transform="translate(24,110)"><circle cx="62" cy="104" r="40" fill="url(#gCell)" stroke="#4ecfaa" stroke-opacity="0.5" stroke-width="2.5"></circle>
    <path d="M90,74 C 100,64 106,58 112,54" stroke="#4ecfaa" stroke-width="3" stroke-dasharray="6 6" fill="none" opacity="0.85"></path></g><circle cx="136" cy="164" r="23" fill="#e05252" opacity="0.45" filter="url(#blur)"></circle><line x1="145.9" y1="164.0" x2="154.0" y2="164.0" stroke="#e05252" stroke-width="3" stroke-linecap="round" opacity="0.85"></line><line x1="142.2" y1="171.7" x2="147.2" y2="178.1" stroke="#e05252" stroke-width="3" stroke-linecap="round" opacity="0.85"></line><line x1="133.8" y1="173.7" x2="132.0" y2="181.5" stroke="#e05252" stroke-width="3" stroke-linecap="round" opacity="0.85"></line><line x1="127.1" y1="168.3" x2="119.8" y2="171.8" stroke="#e05252" stroke-width="3" stroke-linecap="round" opacity="0.85"></line><line x1="127.1" y1="159.7" x2="119.8" y2="156.2" stroke="#e05252" stroke-width="3" stroke-linecap="round" opacity="0.85"></line><line x1="133.8" y1="154.3" x2="132.0" y2="146.5" stroke="#e05252" stroke-width="3" stroke-linecap="round" opacity="0.85"></line><line x1="142.2" y1="156.3" x2="147.2" y2="149.9" stroke="#e05252" stroke-width="3" stroke-linecap="round" opacity="0.85"></line><circle cx="136" cy="164" r="11" fill="url(#gRd)"></circle><circle cx="136" cy="164" r="11" fill="none" stroke="#e05252" stroke-width="2" opacity="0.7"></circle><circle cx="50" cy="136" r="20" fill="#e8a040" opacity="0.35" filter="url(#blur)"></circle><circle cx="50" cy="136" r="17" fill="url(#gAm)"></circle>
<text x="50" y="144" font-family="Inter, 'Helvetica Neue', Arial, sans-serif" font-size="22" font-weight="700" fill="#0f0e0c" text-anchor="middle">1</text><text x="94" y="326" font-size="24" font-family="Inter, 'Helvetica Neue', Arial, sans-serif" font-weight="600" fill="#e8a040" text-anchor="middle">Detects</text>
<text x="94" y="358" font-family="Inter, 'Helvetica Neue', Arial, sans-serif" font-size="22" fill="rgba(245,240,232,0.6)" text-anchor="middle">moves closer</text><path d="M170,192 l12,9 l-12,9" fill="none" stroke="#e8a040" stroke-width="3" stroke-linecap="round" opacity="0.7"></path><g filter="url(#soft)"><rect x="173" y="110" width="141" height="176" rx="16" fill="url(#gSur)" stroke="#e8a040" stroke-opacity="0.30"></rect></g><g transform="translate(173,110)"><g fill="url(#gCell)" stroke="#4ecfaa" stroke-opacity="0.5" stroke-width="2.5">
    <ellipse cx="88" cy="70" rx="27" ry="13" transform="rotate(-42 88 70)"></ellipse>
    <ellipse cx="104" cy="98" rx="27" ry="13" transform="rotate(-42 104 98)"></ellipse>
    <circle cx="60" cy="108" r="38"></circle></g></g><circle cx="271" cy="196" r="23" fill="#e05252" opacity="0.45" filter="url(#blur)"></circle><line x1="280.9" y1="196.0" x2="289.0" y2="196.0" stroke="#e05252" stroke-width="3" stroke-linecap="round" opacity="0.85"></line><line x1="277.2" y1="203.7" x2="282.2" y2="210.1" stroke="#e05252" stroke-width="3" stroke-linecap="round" opacity="0.85"></line><line x1="268.8" y1="205.7" x2="267.0" y2="213.5" stroke="#e05252" stroke-width="3" stroke-linecap="round" opacity="0.85"></line><line x1="262.1" y1="200.3" x2="254.8" y2="203.8" stroke="#e05252" stroke-width="3" stroke-linecap="round" opacity="0.85"></line><line x1="262.1" y1="191.7" x2="254.8" y2="188.2" stroke="#e05252" stroke-width="3" stroke-linecap="round" opacity="0.85"></line><line x1="268.8" y1="186.3" x2="267.0" y2="178.5" stroke="#e05252" stroke-width="3" stroke-linecap="round" opacity="0.85"></line><line x1="277.2" y1="188.3" x2="282.2" y2="181.9" stroke="#e05252" stroke-width="3" stroke-linecap="round" opacity="0.85"></line><circle cx="271" cy="196" r="11" fill="url(#gRd)"></circle><circle cx="199" cy="136" r="20" fill="#e8a040" opacity="0.35" filter="url(#blur)"></circle><circle cx="199" cy="136" r="17" fill="url(#gAm)"></circle>
<text x="199" y="144" font-family="Inter, 'Helvetica Neue', Arial, sans-serif" font-size="22" font-weight="700" fill="#0f0e0c" text-anchor="middle">2</text><text x="243" y="326" font-size="24" font-family="Inter, 'Helvetica Neue', Arial, sans-serif" font-weight="600" fill="#e8a040" text-anchor="middle">Surrounds</text>
<text x="243" y="358" font-family="Inter, 'Helvetica Neue', Arial, sans-serif" font-size="22" fill="rgba(245,240,232,0.6)" text-anchor="middle">wraps round it</text><path d="M319,192 l12,9 l-12,9" fill="none" stroke="#e8a040" stroke-width="3" stroke-linecap="round" opacity="0.7"></path><g filter="url(#soft)"><rect x="322" y="110" width="141" height="176" rx="16" fill="url(#gSur)" stroke="#e8a040" stroke-opacity="0.30"></rect></g><g transform="translate(322,110)"><circle cx="64" cy="104" r="42" fill="url(#gCell)" stroke="#4ecfaa" stroke-opacity="0.5" stroke-width="2.5"></circle>
    <circle cx="82" cy="82" r="18" fill="none" stroke="#4ecfaa" stroke-opacity="0.65" stroke-width="2.5"></circle></g><circle cx="404" cy="192" r="22" fill="#e05252" opacity="0.45" filter="url(#blur)"></circle><line x1="413.0" y1="192.0" x2="421.0" y2="192.0" stroke="#e05252" stroke-width="3" stroke-linecap="round" opacity="0.85"></line><line x1="409.6" y1="199.0" x2="414.6" y2="205.3" stroke="#e05252" stroke-width="3" stroke-linecap="round" opacity="0.85"></line><line x1="402.0" y1="200.8" x2="400.2" y2="208.6" stroke="#e05252" stroke-width="3" stroke-linecap="round" opacity="0.85"></line><line x1="395.9" y1="195.9" x2="388.7" y2="199.4" stroke="#e05252" stroke-width="3" stroke-linecap="round" opacity="0.85"></line><line x1="395.9" y1="188.1" x2="388.7" y2="184.6" stroke="#e05252" stroke-width="3" stroke-linecap="round" opacity="0.85"></line><line x1="402.0" y1="183.2" x2="400.2" y2="175.4" stroke="#e05252" stroke-width="3" stroke-linecap="round" opacity="0.85"></line><line x1="409.6" y1="185.0" x2="414.6" y2="178.7" stroke="#e05252" stroke-width="3" stroke-linecap="round" opacity="0.85"></line><circle cx="404" cy="192" r="10" fill="url(#gRd)"></circle><circle cx="348" cy="136" r="20" fill="#e8a040" opacity="0.35" filter="url(#blur)"></circle><circle cx="348" cy="136" r="17" fill="url(#gAm)"></circle>
<text x="348" y="144" font-family="Inter, 'Helvetica Neue', Arial, sans-serif" font-size="22" font-weight="700" fill="#0f0e0c" text-anchor="middle">3</text><text x="392" y="326" font-size="24" font-family="Inter, 'Helvetica Neue', Arial, sans-serif" font-weight="600" fill="#e8a040" text-anchor="middle">Encloses</text>
<text x="392" y="358" font-family="Inter, 'Helvetica Neue', Arial, sans-serif" font-size="22" fill="rgba(245,240,232,0.6)" text-anchor="middle">traps it in</text><path d="M468,192 l12,9 l-12,9" fill="none" stroke="#e8a040" stroke-width="3" stroke-linecap="round" opacity="0.7"></path><g filter="url(#soft)"><rect x="471" y="110" width="141" height="176" rx="16" fill="url(#gSur)" stroke="#e8a040" stroke-opacity="0.30"></rect></g><g transform="translate(471,110)"><circle cx="64" cy="104" r="42" fill="url(#gCell)" stroke="#4ecfaa" stroke-opacity="0.5" stroke-width="2.5"></circle>
    <circle cx="80" cy="88" r="21" fill="none" stroke="#4ecfaa" stroke-opacity="0.6" stroke-width="2.5" stroke-dasharray="5 5"></circle></g><circle cx="551" cy="198" r="13" fill="#e05252" opacity="0.10"></circle><circle cx="543" cy="192" r="4" fill="#e05252" opacity="0.75"></circle><circle cx="557" cy="202" r="3.5" fill="#e05252" opacity="0.75"></circle><circle cx="549" cy="208" r="3" fill="#e05252" opacity="0.75"></circle><circle cx="561" cy="188" r="3" fill="#e05252" opacity="0.75"></circle><circle cx="497" cy="136" r="20" fill="#e8a040" opacity="0.35" filter="url(#blur)"></circle><circle cx="497" cy="136" r="17" fill="url(#gAm)"></circle>
<text x="497" y="144" font-family="Inter, 'Helvetica Neue', Arial, sans-serif" font-size="22" font-weight="700" fill="#0f0e0c" text-anchor="middle">4</text><text x="541" y="326" font-size="24" font-family="Inter, 'Helvetica Neue', Arial, sans-serif" font-weight="600" fill="#e8a040" text-anchor="middle">Digests</text>
<text x="541" y="358" font-family="Inter, 'Helvetica Neue', Arial, sans-serif" font-size="22" fill="rgba(245,240,232,0.6)" text-anchor="middle">breaks it up</text></svg>